<svg xmlns="http://www.w3.org/2000/svg" width="342" height="453" viewBox="0 0 342 453" role="img" aria-label="Inscolar logo">
<title>Inscolar</title>
<desc>Approved Inscolar symbol. Preserve proportions.</desc>
<path d="M 0 0 L 0 88 L 57 88 L 58 89 L 58 95 L 57 96 L 57 176 L 58 177 L 57 178 L 57 179 L 58 180 L 58 181 L 57 182 L 57 184 L 58 185 L 58 186 L 57 187 L 57 274 L 58 275 L 58 293 L 57 294 L 57 312 L 58 313 L 58 315 L 57 316 L 57 334 L 58 335 L 58 339 L 57 340 L 57 363 L 56 364 L 1 364 L 0 365 L 0 451 L 1 452 L 333 452 L 334 451 L 338 451 L 339 452 L 340 451 L 340 364 L 282 364 L 281 363 L 281 89 L 282 88 L 341 88 L 341 0 Z M 69 38 L 277 38 L 278 39 L 278 49 L 275 52 L 272 53 L 270 55 L 267 56 L 265 58 L 262 59 L 260 61 L 257 62 L 255 64 L 252 65 L 250 67 L 249 67 L 248 68 L 247 68 L 245 70 L 242 71 L 237 75 L 234 76 L 232 78 L 229 79 L 227 81 L 224 82 L 222 84 L 219 85 L 217 87 L 214 88 L 212 90 L 209 91 L 207 93 L 204 94 L 202 96 L 199 97 L 197 99 L 194 100 L 192 102 L 189 103 L 187 105 L 184 106 L 182 108 L 181 108 L 180 109 L 180 350 L 181 351 L 182 351 L 183 352 L 186 353 L 188 355 L 189 355 L 190 356 L 191 356 L 192 357 L 195 358 L 197 360 L 198 360 L 199 361 L 202 362 L 204 364 L 205 364 L 206 365 L 209 366 L 211 368 L 212 368 L 213 369 L 214 369 L 215 370 L 218 371 L 220 373 L 221 373 L 222 374 L 223 374 L 224 375 L 227 376 L 229 378 L 230 378 L 231 379 L 234 380 L 236 382 L 237 382 L 238 383 L 241 384 L 243 386 L 244 386 L 245 387 L 246 387 L 247 388 L 250 389 L 252 391 L 253 391 L 254 392 L 255 392 L 256 393 L 259 394 L 261 396 L 262 396 L 263 397 L 264 397 L 265 398 L 268 399 L 270 401 L 271 401 L 272 402 L 273 402 L 274 403 L 277 404 L 279 406 L 279 410 L 278 411 L 279 412 L 277 414 L 69 414 L 68 413 L 68 408 L 70 406 L 72 406 L 73 405 L 76 405 L 77 404 L 79 404 L 80 403 L 83 403 L 84 402 L 86 402 L 87 401 L 90 401 L 91 400 L 93 400 L 94 399 L 97 399 L 98 398 L 100 398 L 101 397 L 104 397 L 105 396 L 107 396 L 108 395 L 111 395 L 112 394 L 114 394 L 115 393 L 115 217 L 114 216 L 114 192 L 115 191 L 115 189 L 114 188 L 115 187 L 114 186 L 115 185 L 115 155 L 114 154 L 114 125 L 115 124 L 115 122 L 114 121 L 114 85 L 115 84 L 115 60 L 114 59 L 113 59 L 112 58 L 110 58 L 109 57 L 106 57 L 105 56 L 103 56 L 102 55 L 99 55 L 98 54 L 96 54 L 95 53 L 92 53 L 91 52 L 89 52 L 88 51 L 85 51 L 84 50 L 82 50 L 81 49 L 78 49 L 77 48 L 74 48 L 73 47 L 71 47 L 68 45 L 68 39 Z" fill="#FFFFFF" fill-rule="evenodd"/>
</svg>
